<?xml version="1.0" standalone="no"?>
<svg version="1.0" xmlns="http://www.w3.org/2000/svg" width="468pt" height="468pt" viewBox="0 0 468 468" preserveAspectRatio="xMidYMid meet">
    <metadata>2019 TENSEVENTY7, IONIC, AND ORGANIZATION OF TRANSFORMATIVE WORKS. tenseventy7.bitbucket.io</metadata>
	<g id="tenseventyseven-svg" transform="translate(0,468) scale(0.023157,-0.023157)" fill="#990000" stroke="none">
		<path d="M9545 20189 c-77 -5 -221 -15 -320 -24 -99 -9 -270 -27 -380 -41 -110 -14 -303 -43 -430 -64 -126 -21 -336 -61 -465 -89 -129 -28 -329 -76 -443 -106 -114 -31 -303 -85 -419 -121 -117 -36 -293 -95 -392 -131 -100 -36 -259 -96 -354 -134 -95 -38 -251 -103 -345 -145 -95 -42 -271 -126 -392 -186 -121 -61 -274 -140 -340 -176 -66 -36 -185 -103 -265 -150 -80 -47 -221 -133 -315 -192 -93 -60 -246 -162 -340 -227 -93 -65 -226 -161 -295 -213 -69 -52 -195 -150 -280 -219 -85 -68 -223 -184 -307 -258 -84 -73 -232 -209 -330 -301 -98 -93 -264 -261 -369 -373 -106 -112 -240 -260 -299 -329 -59 -69 -160 -190 -224 -270 -65 -80 -158 -199 -207 -265 -50 -66 -133 -181 -186 -255 -52 -74 -138 -200 -190 -280 -52 -80 -125 -194 -163 -255 -37 -60 -113 -189 -168 -285 -55 -96 -150 -274 -213 -395 -62 -121 -149 -299 -192 -395 -44 -96 -110 -247 -147 -335 -36 -88 -96 -239 -132 -335 -36 -96 -94 -260 -128 -365 -35 -104 -86 -269 -114 -365 -28 -96 -73 -265 -100 -375 -28 -110 -68 -288 -90 -395 -22 -107 -53 -278 -70 -380 -17 -102 -42 -273 -56 -380 -13 -107 -31 -274 -39 -370 -9 -96 -20 -253 -26 -349 -6 -96 -10 -338 -10 -537 0 -199 4 -445 10 -546 6 -101 17 -262 25 -358 9 -96 23 -233 31 -305 8 -71 29 -220 45 -330 17 -110 53 -312 80 -450 27 -137 74 -347 104 -465 29 -118 74 -287 100 -375 25 -88 81 -266 124 -395 44 -129 109 -314 146 -410 37 -96 100 -251 140 -345 40 -93 112 -253 160 -355 48 -102 119 -246 158 -320 39 -74 113 -211 165 -305 52 -93 98 -172 102 -175 3 -3 28 -42 54 -88 26 -45 52 -80 56 -77 5 3 38 47 73 98 36 50 91 127 124 169 33 42 104 127 159 188 54 61 150 157 211 212 62 56 148 128 190 161 43 33 138 99 211 147 72 49 202 123 287 166 85 44 154 84 153 89 -2 6 -55 110 -117 230 -63 121 -154 305 -202 410 -48 105 -121 276 -162 380 -41 105 -98 255 -126 335 -28 80 -74 219 -102 310 -28 91 -75 260 -104 375 -29 116 -69 289 -89 385 -19 96 -46 245 -60 330 -13 85 -32 211 -40 280 -9 69 -23 195 -31 280 -8 85 -20 288 -27 451 -9 231 -9 358 0 581 7 157 19 360 27 450 9 89 25 233 36 318 11 85 33 236 50 335 17 99 46 252 65 340 19 88 57 246 84 350 26 105 72 267 100 360 28 94 81 251 117 350 36 99 93 250 128 335 35 85 83 200 108 255 25 55 76 165 114 245 38 80 114 226 168 325 54 99 137 243 183 320 47 77 123 199 170 270 46 72 130 193 185 270 55 77 144 196 198 265 53 69 138 175 189 235 50 61 162 187 248 280 86 94 254 263 372 377 118 114 251 237 295 275 44 37 118 100 165 139 47 39 150 120 230 181 80 60 192 143 250 184 58 41 176 121 263 177 87 57 204 131 260 164 56 33 154 90 217 126 63 36 216 116 340 177 124 62 284 139 355 170 72 32 215 91 319 132 103 41 267 101 364 134 96 32 243 79 326 103 83 25 224 63 312 85 89 23 227 54 305 71 79 17 221 44 314 60 94 16 242 38 330 49 88 12 232 28 320 36 88 8 290 20 448 27 226 9 353 9 585 0 163 -7 365 -19 447 -27 83 -8 209 -22 280 -30 72 -9 211 -30 310 -46 99 -16 248 -43 330 -60 83 -17 254 -57 380 -89 127 -32 311 -84 410 -115 99 -31 249 -82 334 -112 85 -30 211 -77 280 -105 69 -27 203 -84 296 -125 94 -41 253 -117 355 -169 102 -51 254 -132 339 -179 84 -47 228 -132 320 -189 91 -57 236 -152 321 -212 85 -59 225 -160 310 -225 85 -65 213 -166 284 -225 71 -59 186 -159 255 -222 69 -63 216 -205 326 -316 110 -111 251 -260 313 -331 63 -71 151 -174 196 -230 46 -55 132 -165 193 -245 61 -80 158 -215 218 -300 59 -85 153 -229 210 -320 56 -91 141 -232 187 -315 47 -82 131 -242 187 -354 56 -112 132 -269 168 -350 36 -80 98 -229 138 -331 40 -102 94 -243 119 -315 25 -71 71 -211 101 -310 31 -99 80 -277 109 -395 30 -118 70 -294 89 -390 20 -96 47 -249 61 -340 14 -91 35 -241 45 -335 11 -93 26 -240 33 -325 8 -98 13 -321 13 -610 0 -289 -5 -512 -13 -610 -7 -85 -22 -234 -33 -330 -11 -96 -31 -247 -45 -335 -14 -88 -39 -230 -55 -315 -17 -85 -57 -263 -89 -395 -33 -132 -85 -323 -115 -424 -31 -102 -81 -255 -112 -340 -30 -86 -80 -219 -110 -296 -30 -77 -89 -216 -130 -310 -42 -93 -111 -242 -155 -330 -44 -88 -110 -214 -146 -280 -35 -66 -112 -198 -169 -293 -57 -96 -154 -249 -215 -340 -61 -92 -148 -216 -192 -277 -44 -60 -112 -150 -150 -200 -39 -49 -123 -153 -187 -230 -64 -77 -183 -212 -265 -300 -82 -88 -233 -242 -337 -343 -103 -100 -250 -235 -326 -301 -77 -66 -194 -163 -260 -215 -66 -53 -178 -138 -248 -189 -70 -52 -191 -137 -268 -189 -77 -52 -210 -138 -295 -190 -85 -52 -207 -125 -271 -161 -64 -36 -195 -106 -290 -156 -96 -49 -253 -125 -349 -169 -96 -44 -242 -106 -325 -140 -82 -33 -217 -85 -300 -115 -82 -30 -215 -75 -295 -100 -80 -25 -194 -60 -253 -77 -59 -17 -199 -53 -310 -80 -111 -26 -260 -60 -332 -74 -71 -14 -184 -34 -250 -45 -66 -11 -189 -29 -273 -41 -84 -11 -223 -26 -310 -35 -86 -8 -240 -19 -342 -25 -102 -5 -297 -10 -435 -10 -137 0 -333 5 -435 10 -102 6 -277 19 -390 31 -113 11 -281 31 -375 45 -93 14 -270 45 -392 69 -123 25 -314 67 -425 96 -112 28 -275 73 -363 99 -88 27 -233 74 -322 104 -89 31 -166 56 -172 56 -6 0 -11 -7 -11 -15 0 -8 -22 -82 -49 -163 -26 -81 -67 -192 -91 -247 -23 -55 -62 -139 -86 -187 -24 -47 -67 -126 -95 -175 -29 -48 -83 -133 -120 -188 -37 -55 -107 -149 -156 -210 -48 -60 -155 -179 -237 -262 l-149 -153 38 -16 c21 -8 108 -43 194 -76 86 -33 246 -92 356 -130 110 -38 290 -96 400 -129 110 -33 297 -85 415 -115 118 -30 337 -79 485 -109 149 -29 344 -65 435 -79 91 -14 239 -34 330 -45 91 -11 244 -27 340 -35 96 -9 258 -20 360 -26 102 -5 329 -10 505 -10 176 0 403 5 505 10 102 6 264 17 360 25 96 9 267 27 380 41 113 14 297 41 410 59 113 19 295 53 405 75 110 23 298 66 419 96 120 31 307 82 415 114 108 32 291 91 406 130 116 40 309 112 430 160 121 48 290 118 375 155 85 38 279 131 430 206 151 76 361 187 465 247 105 60 265 155 355 212 91 57 206 130 255 163 50 33 142 97 206 143 64 45 161 115 215 155 54 40 176 134 269 208 94 75 222 181 285 235 63 55 162 142 220 195 58 53 188 177 288 276 101 99 248 250 327 335 78 85 191 211 250 280 59 69 158 188 219 265 62 77 139 176 172 220 34 44 101 136 151 205 49 69 135 193 190 275 55 83 140 216 190 296 50 80 137 226 193 325 56 98 151 274 211 389 59 116 144 289 187 385 44 96 109 245 145 330 35 85 90 223 122 305 32 83 89 242 127 355 38 113 91 279 118 370 27 91 69 244 94 340 25 96 61 248 81 338 20 89 51 245 70 347 19 101 48 277 64 392 17 114 39 300 50 413 12 113 26 273 31 355 6 83 13 308 17 500 3 212 1 445 -6 590 -6 132 -18 321 -27 420 -8 99 -26 270 -40 380 -13 110 -36 274 -50 365 -13 91 -47 275 -74 410 -27 135 -70 328 -95 430 -25 102 -62 241 -81 310 -19 69 -60 206 -91 305 -30 99 -84 259 -118 355 -34 96 -94 254 -132 350 -39 96 -110 264 -158 373 -48 109 -138 298 -200 420 -61 122 -147 285 -190 362 -43 77 -120 210 -171 296 -51 86 -165 263 -252 395 -88 131 -207 302 -264 380 -57 78 -153 204 -213 280 -61 76 -161 200 -224 274 -63 74 -176 203 -252 285 -75 83 -240 251 -365 376 -126 124 -290 279 -364 345 -74 65 -189 164 -255 220 -66 55 -183 150 -261 210 -77 61 -198 152 -270 204 -71 52 -210 149 -309 216 -99 67 -245 162 -325 211 -80 49 -208 126 -285 170 -77 44 -225 126 -330 181 -104 56 -277 142 -384 192 -106 50 -279 127 -385 172 -105 44 -272 111 -371 148 -99 38 -263 96 -365 130 -102 34 -270 86 -375 116 -104 31 -280 78 -389 105 -110 27 -299 69 -420 93 -122 25 -279 54 -350 66 -70 11 -192 29 -270 40 -77 10 -204 26 -281 34 -77 9 -196 20 -265 26 -69 5 -199 15 -290 20 -91 5 -345 9 -565 8 -220 0 -463 -5 -540 -9z"/>
		<path d="M9835 16459 c-110 -4 -270 -15 -355 -23 -85 -9 -220 -26 -300 -37 -80 -11 -224 -36 -320 -55 -96 -19 -261 -57 -366 -84 -105 -27 -276 -77 -380 -111 -104 -33 -279 -97 -389 -141 -110 -44 -308 -133 -440 -198 -132 -65 -319 -165 -415 -222 -96 -57 -218 -132 -270 -167 -52 -35 -149 -103 -215 -150 -66 -47 -176 -130 -245 -185 -69 -55 -183 -151 -255 -215 -71 -63 -209 -195 -305 -292 -97 -97 -234 -246 -306 -330 -72 -85 -168 -203 -215 -264 -47 -60 -125 -168 -175 -240 -50 -71 -131 -195 -181 -275 -49 -80 -126 -211 -171 -291 -44 -80 -100 -186 -125 -235 -24 -49 -76 -161 -115 -249 -39 -88 -97 -230 -130 -315 -32 -85 -78 -211 -100 -280 -23 -69 -60 -190 -82 -270 -22 -80 -56 -213 -75 -296 -19 -83 -48 -227 -64 -320 -17 -94 -39 -242 -50 -330 -11 -87 -25 -239 -32 -336 -7 -114 -10 -305 -6 -535 3 -225 11 -412 21 -503 9 -80 28 -224 42 -320 14 -96 41 -251 60 -345 19 -93 50 -228 69 -300 19 -71 54 -198 80 -282 25 -84 61 -194 79 -245 19 -51 61 -160 94 -243 33 -82 86 -206 117 -275 31 -69 96 -202 145 -297 49 -94 130 -240 180 -324 51 -84 124 -200 163 -258 38 -58 104 -153 146 -211 41 -58 122 -163 179 -235 57 -71 168 -202 247 -291 79 -88 219 -233 312 -321 92 -89 221 -206 286 -262 64 -55 181 -149 260 -209 78 -60 192 -143 252 -184 61 -42 166 -111 235 -155 69 -43 186 -113 260 -155 74 -42 200 -108 279 -148 79 -39 204 -98 277 -131 74 -32 203 -85 287 -117 83 -33 215 -80 292 -105 77 -25 205 -64 285 -86 80 -22 215 -56 300 -75 85 -19 234 -48 330 -65 96 -17 256 -39 355 -51 99 -11 268 -25 375 -31 116 -7 302 -9 460 -6 146 4 319 11 385 17 66 6 194 20 285 31 91 11 248 36 350 54 102 19 259 53 350 75 91 23 234 61 318 86 85 25 208 65 275 88 67 24 190 71 272 104 83 33 215 90 295 127 80 37 201 96 270 133 69 36 188 102 265 147 77 45 194 117 260 160 66 42 174 116 240 164 66 47 176 130 245 185 69 55 193 160 277 233 84 74 225 210 314 301 89 92 212 226 273 297 62 72 157 189 212 260 56 72 141 189 191 260 50 72 124 184 165 250 41 66 92 149 113 185 20 36 84 153 140 261 57 107 134 267 173 355 38 87 97 229 129 314 33 85 81 223 108 305 26 83 61 197 77 255 16 58 47 180 68 271 21 91 52 244 69 340 16 96 37 230 45 299 9 69 21 184 28 255 8 81 13 278 13 520 -1 293 -5 433 -18 565 -10 96 -29 254 -42 350 -14 96 -41 254 -61 350 -19 96 -55 253 -79 348 -25 95 -73 257 -106 360 -34 103 -92 264 -130 358 -37 94 -89 218 -114 275 -26 57 -83 176 -127 264 -44 88 -121 230 -171 315 -50 85 -128 214 -175 285 -46 72 -125 186 -175 255 -50 69 -136 181 -191 250 -55 69 -136 166 -180 215 -44 50 -132 144 -195 210 -64 66 -163 164 -221 219 -58 55 -163 149 -235 211 -71 61 -180 149 -240 196 -61 47 -169 126 -240 176 -72 50 -188 128 -260 174 -71 45 -204 123 -295 174 -91 51 -202 111 -247 133 -45 23 -148 71 -230 108 -81 36 -211 91 -288 121 -77 30 -205 77 -285 105 -80 27 -217 69 -305 94 -88 24 -228 60 -311 79 -83 19 -227 48 -321 64 -93 17 -244 39 -334 50 -90 11 -236 25 -324 30 -88 6 -234 12 -325 14 -91 2 -255 1 -365 -4z m1599 -3448 c3 -4 31 -11 63 -15 32 -4 72 -11 88 -15 17 -5 71 -21 120 -37 50 -15 117 -41 150 -56 33 -16 78 -38 100 -51 22 -12 78 -49 125 -81 47 -33 133 -107 191 -165 59 -58 125 -132 148 -163 23 -32 55 -81 72 -110 16 -29 43 -80 58 -113 16 -33 40 -94 54 -135 14 -41 30 -96 36 -122 6 -25 18 -97 26 -160 8 -62 15 -151 15 -198 0 -47 -5 -121 -10 -165 -6 -44 -18 -114 -27 -155 -8 -41 -22 -97 -30 -125 -9 -27 -20 -54 -24 -59 -5 -6 -9 -17 -9 -25 0 -9 -17 -50 -38 -91 -21 -41 -45 -86 -53 -100 -8 -13 -32 -49 -53 -79 -22 -30 -49 -66 -60 -80 -11 -14 -64 -70 -118 -123 -58 -57 -137 -123 -195 -161 -54 -35 -132 -80 -173 -100 -41 -20 -100 -45 -130 -55 -30 -11 -73 -24 -95 -30 -22 -6 -65 -18 -95 -26 -30 -8 -88 -19 -128 -25 -40 -6 -163 -11 -274 -11 -110 0 -230 5 -267 11 -36 6 -93 17 -126 26 -33 9 -87 25 -120 35 -33 11 -76 27 -95 35 -19 8 -51 23 -70 32 -19 9 -59 31 -88 49 -29 17 -55 32 -58 32 -3 0 -43 29 -88 64 -44 35 -117 101 -162 147 -44 46 -107 122 -141 169 -33 47 -78 123 -101 170 -22 47 -51 121 -65 165 -14 44 -30 98 -36 120 -5 22 -16 74 -23 115 -7 41 -13 147 -13 235 0 88 6 196 13 240 7 44 18 98 23 120 6 22 22 76 36 120 14 44 43 118 65 165 23 47 62 117 89 157 26 39 58 84 71 99 13 16 55 62 93 102 39 41 104 100 145 131 41 31 89 65 105 76 17 11 48 30 70 42 22 13 64 34 93 48 29 14 86 37 125 51 40 14 90 30 112 35 22 5 76 16 119 24 44 8 82 17 84 20 3 3 110 5 238 5 128 0 235 -4 238 -9z m-5472 -52 c29 -6 85 -17 123 -25 39 -8 86 -19 105 -24 19 -5 82 -23 140 -41 58 -17 123 -37 145 -45 22 -7 72 -25 110 -39 39 -14 124 -48 190 -74 66 -27 152 -63 190 -81 39 -17 153 -73 255 -124 102 -51 203 -104 225 -116 22 -13 69 -40 105 -60 36 -20 84 -48 107 -63 24 -15 45 -27 48 -27 3 0 69 -41 148 -90 78 -50 188 -121 244 -158 56 -37 142 -94 190 -127 48 -33 94 -65 101 -72 8 -7 23 -18 35 -24 11 -7 26 -16 31 -21 6 -4 31 -23 55 -41 25 -17 84 -61 131 -97 48 -36 124 -93 169 -127 45 -34 100 -77 123 -95 23 -18 96 -77 163 -132 66 -54 145 -119 175 -145 30 -25 91 -77 135 -116 44 -38 82 -72 85 -75 3 -3 23 -20 45 -39 22 -19 80 -70 130 -115 49 -45 157 -144 240 -221 82 -77 280 -270 439 -428 280 -280 289 -289 320 -282 17 4 47 11 66 15 19 4 71 15 115 24 44 9 103 21 130 26 28 5 104 18 170 29 66 10 158 24 205 30 47 7 151 18 232 26 81 8 196 15 255 15 59 0 113 4 119 8 5 4 24 31 42 60 18 29 32 54 32 55 0 2 30 53 68 114 37 61 89 146 116 190 27 43 94 141 149 218 55 77 132 181 170 230 39 50 107 133 151 185 44 52 112 129 150 170 39 41 111 116 161 165 50 50 134 128 186 175 52 47 128 113 169 146 41 33 111 87 155 120 44 32 82 61 85 64 3 3 39 28 80 56 41 28 122 80 180 116 58 36 146 89 195 118 50 28 149 80 222 116 82 40 144 64 165 64 19 0 39 -5 46 -12 7 -7 12 -25 12 -42 0 -17 -9 -40 -22 -53 -12 -13 -25 -23 -29 -23 -5 0 -43 -21 -86 -47 -43 -25 -134 -84 -203 -129 -69 -46 -164 -112 -212 -147 -47 -35 -140 -108 -205 -163 -65 -54 -193 -173 -284 -264 -91 -91 -185 -187 -210 -215 -24 -27 -78 -90 -120 -140 -41 -49 -102 -126 -135 -170 -32 -44 -64 -85 -70 -92 -6 -6 -46 -64 -90 -128 -43 -64 -103 -156 -132 -203 -30 -48 -67 -112 -84 -142 -17 -30 -34 -60 -39 -65 -4 -6 -44 -81 -88 -167 -61 -118 -78 -158 -68 -166 6 -5 64 -15 127 -21 63 -6 144 -16 180 -22 36 -6 110 -20 165 -31 55 -10 118 -23 140 -28 22 -5 74 -20 115 -34 41 -13 93 -32 115 -41 22 -9 67 -30 100 -47 33 -17 87 -50 120 -73 33 -24 81 -65 108 -91 26 -27 61 -69 77 -94 17 -25 42 -76 57 -115 25 -63 27 -82 27 -190 -1 -105 -5 -129 -28 -194 -15 -40 -49 -108 -74 -150 -29 -47 -85 -114 -148 -176 -65 -65 -127 -116 -177 -145 -42 -25 -77 -51 -77 -57 0 -7 35 -30 78 -52 43 -22 121 -67 173 -102 53 -35 133 -102 184 -153 58 -59 102 -114 124 -155 18 -35 40 -86 47 -115 8 -28 14 -83 14 -122 0 -45 -8 -94 -21 -135 -11 -35 -37 -93 -56 -128 -20 -36 -70 -99 -112 -141 -42 -43 -96 -90 -121 -105 -24 -15 -66 -39 -92 -52 -26 -13 -82 -35 -125 -49 -43 -13 -104 -27 -136 -31 -32 -3 -60 -10 -63 -14 -3 -5 -65 -9 -139 -9 -74 0 -136 4 -139 9 -3 4 -32 11 -65 14 -32 4 -81 12 -107 18 -27 7 -85 23 -129 36 -44 13 -94 31 -112 39 -17 7 -34 14 -38 14 -4 0 -37 15 -73 33 -37 18 -89 46 -117 62 -27 16 -79 51 -115 78 -36 27 -92 77 -124 111 -32 33 -72 81 -87 105 -16 25 -29 57 -29 73 0 18 8 33 25 44 13 9 33 13 44 9 11 -3 61 -48 113 -99 51 -50 118 -108 150 -128 31 -20 94 -54 140 -76 45 -22 119 -51 163 -65 44 -14 103 -30 130 -36 28 -6 79 -15 114 -22 35 -6 116 -10 180 -10 64 0 150 7 191 16 41 8 90 19 107 24 18 5 68 26 110 47 55 26 97 56 140 100 40 39 74 85 93 126 23 49 30 77 30 126 0 42 -6 75 -19 100 -10 20 -43 60 -72 88 -30 27 -76 65 -102 83 -26 18 -89 54 -140 81 -51 26 -128 62 -172 80 -44 17 -89 35 -100 40 -11 4 -38 14 -60 23 -22 8 -71 27 -110 43 -38 15 -86 38 -105 50 -19 12 -44 32 -55 45 -11 13 -26 34 -32 46 -7 13 -13 46 -13 74 0 27 5 60 11 72 6 12 23 35 38 50 14 16 40 35 56 42 17 8 62 21 100 30 39 8 93 23 120 32 28 9 67 27 87 40 21 13 40 23 43 23 2 0 14 8 26 18 12 9 42 35 68 56 25 21 69 67 96 102 28 35 58 85 68 111 9 26 17 69 17 96 0 41 -5 53 -39 90 -22 24 -68 57 -103 74 -35 18 -92 41 -128 51 -36 11 -99 27 -140 35 -41 9 -113 21 -160 28 -47 6 -195 14 -330 16 -199 4 -248 2 -256 -9 -6 -7 -16 -29 -23 -48 -7 -19 -17 -44 -22 -55 -4 -11 -19 -54 -33 -95 -13 -41 -43 -136 -65 -210 -23 -74 -45 -148 -50 -165 -5 -16 -21 -79 -36 -140 -14 -60 -32 -137 -40 -170 -7 -33 -18 -82 -23 -110 -6 -27 -18 -93 -27 -145 -8 -52 -20 -117 -27 -145 -6 -27 -18 -63 -27 -80 -8 -16 -31 -47 -51 -68 -19 -21 -47 -45 -62 -53 -15 -8 -50 -19 -77 -25 -37 -8 -65 -7 -105 1 -30 6 -75 25 -101 42 -29 19 -105 101 -198 212 -83 100 -153 183 -156 186 -4 3 -33 36 -66 75 -33 38 -72 83 -86 100 -15 16 -82 95 -150 175 -68 80 -132 154 -142 165 -10 11 -53 62 -95 113 -51 62 -83 92 -97 92 -11 0 -45 -9 -75 -20 -30 -12 -163 -57 -295 -101 -132 -44 -249 -84 -260 -88 -11 -5 -38 -16 -60 -24 -22 -9 -95 -36 -162 -61 -67 -25 -187 -72 -265 -105 -79 -32 -168 -70 -198 -84 -30 -13 -104 -46 -165 -72 -60 -26 -263 -123 -450 -216 -187 -92 -385 -192 -440 -221 -55 -30 -127 -69 -160 -88 -33 -18 -73 -41 -90 -50 -16 -9 -55 -30 -85 -47 -30 -17 -101 -58 -158 -92 -57 -34 -106 -61 -108 -61 -2 0 -124 -74 -270 -165 -146 -91 -314 -198 -372 -238 -59 -40 -124 -81 -146 -91 -28 -13 -55 -17 -101 -14 -49 3 -70 10 -99 31 -20 16 -45 46 -56 67 -11 22 -20 57 -20 79 0 22 9 59 19 83 10 24 60 95 111 158 50 63 97 122 103 130 7 8 48 65 93 125 44 61 114 157 154 215 41 58 103 147 137 199 35 51 63 96 63 99 0 3 11 19 23 36 13 17 26 36 28 41 2 6 29 53 61 105 31 52 72 124 92 160 20 36 60 115 90 175 29 61 66 136 80 168 14 32 26 63 26 70 0 7 4 17 9 23 5 5 27 65 49 134 23 69 53 166 67 215 14 50 32 110 39 135 7 25 37 140 65 255 29 116 56 226 61 245 5 19 16 69 25 110 9 41 21 91 25 110 4 19 16 71 25 115 9 44 21 98 25 120 5 22 15 72 24 110 8 39 19 95 24 125 6 30 17 89 26 130 8 41 20 107 27 145 6 39 18 97 26 130 8 33 19 66 25 73 6 6 26 12 44 12 25 0 38 -7 50 -25 13 -20 15 -38 10 -78 -4 -29 -11 -88 -16 -132 -5 -44 -17 -129 -25 -190 -9 -60 -20 -141 -24 -180 -5 -38 -14 -101 -20 -140 -6 -38 -16 -99 -21 -135 -5 -36 -16 -110 -25 -165 -9 -55 -20 -127 -26 -160 -5 -33 -14 -82 -19 -110 -5 -27 -16 -90 -25 -140 -9 -49 -28 -144 -41 -210 -14 -66 -29 -138 -34 -160 -4 -22 -16 -71 -25 -110 -9 -38 -20 -86 -25 -105 -5 -19 -17 -62 -26 -95 -9 -33 -32 -107 -51 -165 -19 -58 -42 -121 -50 -140 -8 -19 -19 -44 -23 -55 -5 -11 -16 -38 -25 -60 -10 -22 -59 -125 -111 -230 -51 -104 -111 -222 -133 -262 -22 -40 -47 -86 -57 -102 -10 -17 -15 -33 -11 -37 3 -3 28 9 54 28 26 19 119 79 206 134 87 54 219 137 295 183 75 46 157 95 182 109 25 14 62 36 83 49 21 13 53 32 70 42 18 10 59 33 92 51 33 18 65 36 70 40 6 4 46 26 90 50 44 24 125 67 180 97 55 29 204 104 330 167 127 63 253 124 280 136 28 12 83 38 123 56 41 19 75 34 77 34 2 0 36 15 77 34 40 18 109 48 153 66 44 17 89 36 100 40 11 5 71 28 132 52 62 24 113 48 113 54 0 6 -68 90 -151 185 -84 96 -170 194 -193 219 -23 25 -90 99 -151 165 -60 66 -144 156 -185 200 -41 44 -179 183 -305 310 -127 126 -307 300 -400 385 -94 85 -201 182 -239 215 -38 33 -74 65 -80 70 -6 6 -36 30 -66 55 -30 25 -57 47 -60 50 -3 4 -41 35 -85 71 -44 36 -118 96 -165 132 -47 37 -91 72 -97 77 -7 6 -106 77 -220 158 -115 81 -253 176 -308 211 -54 35 -149 94 -210 131 -60 37 -132 80 -160 96 -27 15 -81 45 -120 66 -38 21 -129 67 -200 102 -72 35 -182 85 -245 111 -63 26 -124 51 -135 56 -11 5 -63 22 -115 40 -52 17 -138 42 -190 55 -71 18 -101 30 -117 49 -13 15 -23 30 -23 34 0 5 9 20 21 35 16 20 29 26 59 26 21 0 62 -5 92 -11z"/>
		<path d="M11069 12636 c-2 -2 -38 -9 -79 -15 -41 -6 -110 -22 -154 -36 -43 -14 -110 -41 -148 -60 -38 -19 -102 -58 -141 -86 -40 -29 -95 -75 -123 -103 -29 -28 -76 -85 -106 -127 -30 -42 -69 -106 -86 -141 -17 -36 -38 -85 -46 -109 -8 -24 -22 -73 -32 -109 -14 -51 -17 -106 -17 -260 0 -156 3 -207 17 -255 9 -33 22 -73 28 -90 6 -16 17 -46 25 -65 9 -19 26 -57 40 -85 13 -27 49 -82 78 -121 30 -38 80 -95 112 -125 32 -30 83 -74 113 -96 30 -23 87 -58 127 -77 39 -20 91 -43 115 -52 24 -8 59 -20 78 -25 19 -5 71 -16 115 -24 44 -8 134 -15 200 -15 66 1 158 7 205 15 47 7 101 18 120 24 19 5 64 20 100 34 36 13 88 37 115 52 28 15 75 46 105 68 30 23 81 66 114 96 32 31 80 83 106 116 26 33 65 94 87 135 22 41 52 107 66 145 14 39 31 99 38 135 9 40 14 131 14 235 0 111 -5 186 -13 215 -7 25 -20 68 -29 95 -8 28 -19 61 -25 75 -6 14 -18 41 -27 60 -9 19 -27 53 -41 75 -13 22 -48 70 -77 106 -28 36 -82 94 -120 128 -37 34 -107 86 -156 116 -48 30 -93 55 -100 55 -7 0 -17 4 -22 9 -6 5 -46 21 -90 35 -44 14 -118 33 -165 41 -47 8 -137 15 -201 15 -64 0 -118 -2 -120 -4z"/>
		<path d="M11595 9445 c-5 -1 -44 -8 -85 -15 -41 -6 -93 -15 -115 -20 -22 -5 -76 -16 -120 -26 -44 -9 -104 -23 -134 -30 -30 -8 -56 -15 -58 -18 -2 -2 44 -64 103 -137 59 -74 143 -182 186 -241 44 -60 83 -108 87 -108 5 0 15 19 24 43 9 23 25 69 35 102 11 33 27 80 37 105 9 25 24 63 32 85 8 22 19 49 24 60 4 11 24 59 44 108 19 48 35 89 35 92 0 3 -19 5 -42 4 -24 0 -47 -2 -53 -4z"/>
		<path d="M3908 5245 c-53 -8 -152 -27 -220 -43 -68 -17 -168 -47 -222 -67 -55 -19 -150 -60 -210 -89 -61 -30 -158 -85 -216 -123 -58 -38 -145 -103 -195 -144 -49 -42 -129 -116 -176 -166 -47 -50 -117 -133 -156 -184 -38 -52 -90 -128 -116 -169 -25 -41 -71 -127 -101 -190 -30 -63 -73 -168 -95 -233 -22 -64 -51 -170 -65 -235 -13 -64 -30 -171 -37 -237 -7 -74 -10 -179 -6 -275 4 -85 13 -198 22 -250 9 -52 27 -138 40 -191 14 -53 39 -137 56 -185 17 -49 59 -148 94 -220 35 -71 94 -175 131 -230 36 -54 91 -130 122 -168 32 -39 95 -109 142 -156 47 -47 121 -115 165 -150 44 -35 126 -94 183 -131 57 -37 154 -92 216 -123 63 -31 175 -76 250 -101 74 -25 187 -57 250 -70 64 -13 178 -29 253 -36 79 -7 188 -9 257 -5 65 3 165 13 223 22 58 8 149 26 202 40 53 14 130 37 171 51 41 14 122 47 180 73 58 25 151 74 208 108 56 33 135 86 175 116 39 30 110 88 157 129 47 41 113 106 147 144 34 39 92 109 127 157 36 47 91 129 122 182 31 52 76 139 101 192 25 53 65 155 88 227 24 71 53 175 64 230 11 55 25 144 30 197 6 54 11 155 11 225 0 71 -6 180 -14 243 -8 63 -24 157 -35 209 -12 52 -32 133 -47 179 -14 46 -46 132 -71 191 -24 58 -72 154 -105 212 -33 58 -95 154 -139 213 -44 60 -119 148 -167 198 -47 49 -123 120 -167 158 -45 38 -133 104 -196 146 -63 42 -168 102 -234 134 -66 32 -172 76 -235 98 -63 22 -155 49 -205 60 -49 12 -143 28 -208 37 -70 9 -186 15 -285 14 -92 -1 -211 -7 -264 -14z"/>
	</g>
</svg>
