<svg xmlns="http://www.w3.org/2000/svg" viewBox="0 0 950.26 663.35"><defs><style>.cls-1{fill:#ffe4ad;}.cls-2{fill:#e0e0e0;}.cls-3{fill:#fd8369;}.cls-4{fill:#ffd98e;}.cls-11,.cls-5,.cls-6,.cls-8{fill:none;stroke-linecap:round;stroke-linejoin:round;stroke-width:2.38px;}.cls-5{stroke:#fd8369;}.cls-6{stroke:#ffd98e;}.cls-7{fill:#c9c9c9;}.cls-8{stroke:#c4c4c4;}.cls-9{fill:#5fc5d1;}.cls-10{fill:#e49d75;}.cls-11{stroke:#d3d3d3;}.cls-12{fill:#d3d3d3;}.cls-13{fill:#6bd5e1;}</style></defs><title>reading-corner-colour</title><g id="Layer_2" data-name="Layer 2"><g id="vector"><path class="cls-1" d="M66.79,437.8c-6.19,0-7.69-6.75-15.48-6.75-4.85,0-15,2.76-15,7.49h0l5.11,35.77H69.67l5.88-39.54C74.83,437,71.56,437.8,66.79,437.8Z"/><path class="cls-2" d="M835.1,662.16c12.18-18,17.26-32.31,17.26-37.95,0-55.8-188.67-115.37-378-126.31C474.33,469.83,338.91,283,259.51,283c-56.48,0-95.22,36-95.22,119,0,105.08,41.44,193.93,100.51,260.16Z"/><path class="cls-3" d="M832,455.09c7.68,0,11.74-73.59,11.74-81.71s-17.56-85-70.79-85c-20.07,0-34.33,20.94-34.33,47.12,0,36.21,49.37,63.11,57,71.26C808.77,420.77,815.75,455.09,832,455.09Z"/><path class="cls-4" d="M841.65,491.53c-4.76,0-17.66-35.7-17.66-65.2,0-34.38,31.35-76.45,35.55-91.63,7.43-26.92,19.67-79.46,57-79.46,21.2,0,33.74,23.28,33.74,47.46,0,23.28-22.7,43.43-43.12,66.57-20,22.68-17.69,41.8-28.82,69.55C866.94,467.17,848.31,491.53,841.65,491.53Z"/><path class="cls-5" d="M841.19,483.88c-6.91-40.79,36.84-162.83,70.07-197"/><path class="cls-6" d="M783.75,317.51c6.69,5.52,45.67,70.49,48.58,101.8"/><polyline class="cls-7" points="844.14 476.31 897.6 476.31 870.87 662.16 844.14 662.16 843.41 662.16 816.68 662.16 789.96 476.31 843.41 476.31"/><path d="M393.45,243.63c0,84.88,26,84.47,26,96.8,0,24.23-12.11,21.4-12.11,21.4S282.61,349.67,393.45,243.63Z"/><line class="cls-8" x1="114.46" y1="78.69" x2="114.46" y2="1.19"/><line class="cls-8" x1="617.89" y1="78.69" x2="617.89" y2="1.19"/><circle class="cls-1" cx="114.46" cy="140.8" r="17.1"/><circle class="cls-1" cx="617.89" cy="140.8" r="17.1"/><path class="cls-9" d="M848.25,575.15c-6.51-11.34-242-83.89-269.14-85-51-8.64-84.57,19.21-96.93,43.5,47.49,10.67,104,26.28,118.39,32.21l3.52,0c2-.11,4.27-.13,6.88-.06,17.91-.21,32.85-.63,40.91-1.11,24.46,9.12,183.78,44.37,187.7,42.24S851.14,580.17,848.25,575.15Z"/><path class="cls-4" d="M421.28,523c14.46.68,43.53,6.48,74.3,13.71,18.78-18.27,32.93-43.2,31.57-73-29-66.84-145-153.25-193.5-153.21-7.29,6-8.89,49.73-14.42,75.2-2,9.34,7.57,36.34,22,66.93C374.29,477.69,406,506.44,421.28,523Z"/><polygon class="cls-10" points="844.95 582.15 865.62 587.46 859.26 608.27 838.77 604.58 844.95 582.15"/><path class="cls-10" d="M365.08,297.74c-.38,4.84-.13,25.08,2.29,34.88C360.5,332.5,319.5,294.81,365.08,297.74Z"/><ellipse class="cls-10" cx="355.48" cy="255.29" rx="36.25" ry="47.5"/><path d="M353.23,194.79c-47.26,0-66,68.41-66,106,0,33.69,12.65,42.71,18.42,45.47s20.33,3.27,29.62,5.52c11.9,2.89,18.36,13.81,29.36,13.81,8.54,0,13.57-8.29,13.57-15,0-27.19-45.49-50-45.49-90.46,8.72-3,41.36-26.77,41.36-36.23,0,6.42,16.7,23.86,19.52,25.1C394.83,244.91,388,194.79,353.23,194.79Z"/><rect class="cls-2" x="479.41" y="377.19" width="52.78" height="94.23" transform="translate(25.2 -28.35) rotate(3.29)"/><polygon class="cls-7" points="577.79 441.98 541.72 469.83 547.13 375.75 583.2 347.9 577.79 441.98"/><line class="cls-11" x1="485.43" y1="369.78" x2="538.28" y2="377.94"/><line class="cls-11" x1="566.45" y1="346.22" x2="540.76" y2="377.94"/><line class="cls-11" x1="573.33" y1="349" x2="542.85" y2="377.08"/><polygon class="cls-10" points="737.35 577.71 747.51 592.64 761.95 583.74 753.38 569.3 737.35 577.71"/><path class="cls-3" d="M114.46,78.69a65.53,65.53,0,0,0-65.52,65.53H180A65.53,65.53,0,0,0,114.46,78.69Z"/><path class="cls-3" d="M617.89,78.69a65.52,65.52,0,0,0-65.52,65.53h131A65.53,65.53,0,0,0,617.89,78.69Z"/><line class="cls-8" x1="1.19" y1="476.31" x2="202.03" y2="476.31"/><line class="cls-8" x1="101.61" y1="476.31" x2="101.61" y2="662.16"/><rect class="cls-5" x="108.69" y="449.33" width="45.74" height="24.98"/><circle class="cls-10" cx="329.71" cy="264.73" r="9.44"/><polygon class="cls-12" points="541.72 469.83 529.44 472.86 534.85 378.79 547.13 375.75 541.72 469.83"/><polygon points="744.65 591.84 752.11 612.47 814.64 596.6 812.26 584.53 761.48 580.91 744.65 591.84"/><polygon points="858.11 607.13 877.92 616.57 911.26 561.33 901.09 554.42 862.41 587.54 858.11 607.13"/><path class="cls-13" d="M641.82,365.59c-48.36,11-131.93,100-173.22,165.08,29.93,6.32,66,15.43,93.35,23.1,41.61-32.38,72-84,76.5-90.16,11.36,23.13,92.08,117.3,98,117.3s15.55-4.2,19.34-11.35C752.39,549.38,667.46,361.93,641.82,365.59Z"/><path class="cls-10" d="M369.93,475.52c37.47-3.41,110.19-16.77,116.41-18.09,7.82-1.65,14.92-26.06,8.05-40.51-2.37-4.26-5-4.37-7-3.9s-6.77,18.06-11.64,19-94.89,6.32-102.5,6.66c-1-4.74-10.15-39.08-12.35-41.79S311,418.17,311,418.17a164.5,164.5,0,0,0,7.68,18.16C335.91,448.14,353.72,462,369.93,475.52Z"/><path class="cls-1" d="M304.71,326c15.64-5.54,50.83,14.15,61.31,69.95-6,8.39-39,26.73-58.17,26.46C299.47,415,271.44,337.74,304.71,326Z"/><polyline class="cls-5" points="78.41 415.5 69.67 474.31 41.42 474.31 33.02 415.5"/></g></g></svg>