<?xml version="1.0" standalone="no"?>
<!DOCTYPE svg PUBLIC "-//W3C//DTD SVG 20010904//EN"
 "http://www.w3.org/TR/2001/REC-SVG-20010904/DTD/svg10.dtd">
<svg fill="#D6142C" version="1.0" xmlns="http://www.w3.org/2000/svg"
 width="468pt" height="459pt" viewBox="0 0 468 459"
 preserveAspectRatio="xMidYMid meet">
<metadata>
Created by POTRACE VERSION, written by Peter Selinger 2001-2007
</metadata>
<g transform="translate(0,459) scale(0.032209,-0.032209)" stroke="none">
<path d="M4810 14209 c-85 -5 -216 -16 -290 -24 -74 -9 -202 -27 -285 -41 -82
-14 -232 -45 -332 -70 -100 -24 -253 -67 -340 -95 -87 -28 -223 -77 -303 -109
-80 -32 -195 -81 -256 -108 -61 -28 -178 -86 -260 -130 -82 -44 -178 -96 -214
-117 -36 -21 -114 -70 -174 -108 -60 -39 -157 -104 -215 -145 -58 -41 -146
-108 -196 -148 -51 -40 -130 -105 -176 -144 -46 -39 -153 -140 -238 -223 -85
-84 -198 -201 -251 -262 -53 -60 -136 -159 -184 -220 -48 -60 -130 -172 -183
-248 -53 -76 -138 -209 -190 -295 -52 -87 -142 -251 -199 -366 -57 -115 -135
-289 -173 -385 -38 -97 -85 -225 -104 -286 -20 -60 -49 -157 -66 -215 -16 -58
-40 -154 -54 -215 -14 -60 -35 -162 -46 -225 -12 -63 -28 -167 -36 -230 -9
-63 -22 -203 -30 -310 -8 -107 -15 -278 -15 -380 0 -102 7 -273 15 -380 8
-107 21 -247 30 -310 8 -63 24 -167 36 -230 11 -63 32 -164 46 -225 14 -60 38
-157 54 -215 17 -58 48 -161 71 -230 22 -69 67 -192 100 -275 33 -82 97 -227
143 -322 46 -94 118 -234 161 -310 43 -76 114 -194 159 -263 45 -69 112 -168
150 -220 38 -52 102 -138 144 -190 41 -52 118 -144 172 -205 53 -60 164 -176
245 -257 82 -80 194 -185 249 -233 55 -48 168 -138 250 -200 83 -62 197 -144
255 -182 58 -39 152 -98 209 -133 57 -34 171 -98 253 -141 82 -43 208 -105
281 -138 72 -33 188 -82 257 -109 69 -27 181 -68 250 -90 69 -23 172 -54 230
-71 58 -16 168 -43 245 -60 77 -16 194 -39 260 -50 66 -11 179 -27 250 -35 72
-9 234 -21 362 -27 175 -9 286 -9 447 0 119 6 284 20 367 31 83 12 199 30 258
41 58 11 168 36 243 55 75 18 205 56 288 84 83 28 213 75 288 106 75 31 214
93 307 138 94 46 231 118 305 160 74 43 198 119 275 170 77 51 198 136 269
189 70 53 130 97 132 97 2 0 4 -912 4 -2027 0 -1365 4 -2057 11 -2118 5 -49
22 -128 36 -175 14 -46 44 -123 68 -170 24 -47 70 -121 102 -165 33 -44 89
-107 124 -140 35 -33 90 -77 122 -98 31 -21 92 -55 135 -76 42 -21 108 -48
146 -60 39 -12 111 -28 160 -36 50 -8 130 -15 177 -15 47 0 128 7 180 16 52 9
132 30 179 46 47 16 112 45 146 63 33 19 89 55 123 80 35 26 95 79 133 118 38
40 89 101 113 137 23 36 55 90 70 120 15 30 36 79 47 110 10 30 26 84 35 120
15 59 17 264 23 2115 5 1509 9 2076 18 2150 7 55 22 154 33 220 11 66 33 174
50 240 16 66 47 172 68 235 22 63 62 169 90 235 29 66 80 174 115 240 34 66
91 166 127 223 35 57 100 151 143 210 44 59 121 154 171 212 51 58 137 148
191 200 54 51 146 131 204 177 58 47 161 122 230 167 69 46 170 108 225 139
55 30 154 80 220 110 66 30 164 71 218 91 54 20 153 53 220 72 66 19 176 46
242 59 67 14 180 32 252 40 72 8 240 19 374 25 155 6 268 15 309 25 36 8 88
23 115 32 28 8 91 36 140 60 50 25 124 70 165 101 41 31 101 83 133 117 32 33
78 87 102 121 24 33 62 98 85 145 22 46 52 129 66 184 17 67 27 139 31 220 4
85 1 152 -11 233 -9 62 -26 143 -37 180 -12 37 -39 102 -60 145 -22 43 -59
107 -84 141 -24 35 -80 97 -124 139 -43 41 -114 96 -158 121 -43 26 -112 60
-154 76 -41 16 -121 38 -177 49 -58 12 -163 24 -249 27 -81 4 -240 1 -353 -5
-113 -6 -248 -16 -300 -22 -52 -5 -144 -16 -205 -25 -60 -8 -168 -26 -240 -40
-71 -14 -182 -38 -245 -54 -63 -15 -155 -40 -205 -54 -49 -14 -135 -41 -190
-60 -55 -18 -136 -47 -180 -64 -44 -16 -144 -57 -223 -91 -78 -33 -208 -94
-290 -135 -81 -40 -203 -106 -272 -146 -69 -40 -183 -111 -255 -158 -71 -46
-167 -111 -213 -144 -46 -33 -85 -59 -87 -57 -2 2 -6 81 -10 174 -3 94 -10
229 -16 300 -5 72 -19 199 -30 283 -11 84 -33 222 -50 305 -16 84 -48 221 -70
306 -22 85 -63 223 -90 305 -28 83 -76 212 -106 286 -30 74 -94 216 -142 315
-48 99 -124 245 -170 325 -45 80 -129 215 -186 300 -56 85 -137 200 -178 255
-42 55 -105 136 -142 180 -37 44 -124 143 -193 219 -70 77 -186 194 -257 260
-72 67 -177 160 -235 208 -58 48 -148 119 -200 159 -52 39 -158 113 -235 164
-77 51 -201 127 -275 171 -74 43 -220 119 -325 170 -104 51 -257 119 -340 152
-82 33 -221 83 -307 111 -87 28 -231 68 -320 90 -90 22 -225 52 -302 66 -76
14 -211 34 -300 45 -88 11 -249 24 -356 30 -107 5 -244 9 -305 8 -60 0 -180
-5 -265 -9z m525 -2154 c55 -3 162 -15 239 -26 76 -11 197 -35 270 -54 72 -18
185 -52 250 -75 66 -23 176 -67 244 -97 68 -31 179 -87 245 -126 67 -38 165
-99 217 -135 52 -36 118 -84 145 -105 28 -22 98 -81 156 -133 58 -51 139 -131
180 -176 41 -46 104 -119 140 -163 36 -44 91 -116 121 -160 31 -44 81 -122
112 -174 32 -51 83 -146 115 -210 32 -64 79 -168 104 -231 25 -64 61 -170 81
-235 19 -66 44 -163 55 -215 11 -52 28 -149 38 -215 15 -99 17 -174 15 -425
-2 -245 -6 -332 -23 -445 -11 -77 -31 -185 -44 -240 -13 -55 -36 -138 -50
-185 -15 -47 -45 -131 -66 -188 -22 -56 -65 -158 -97 -225 -32 -67 -87 -169
-122 -227 -35 -58 -88 -141 -119 -185 -30 -44 -73 -102 -94 -130 -22 -27 -84
-101 -140 -163 -55 -63 -154 -161 -219 -218 -65 -58 -160 -135 -211 -173 -51
-37 -124 -88 -163 -113 -38 -25 -120 -73 -181 -106 -60 -34 -146 -78 -189 -98
-43 -20 -129 -55 -190 -79 -61 -24 -158 -57 -215 -73 -57 -17 -135 -37 -174
-46 -38 -9 -108 -22 -155 -30 -47 -9 -130 -21 -185 -27 -55 -7 -201 -12 -325
-12 -150 0 -268 6 -353 17 -71 9 -183 28 -250 42 -67 14 -173 41 -237 61 -63
19 -161 52 -217 74 -56 22 -168 73 -250 114 -81 40 -199 105 -261 144 -62 39
-155 102 -206 141 -52 38 -136 107 -187 153 -52 46 -140 132 -197 191 -56 60
-143 163 -193 229 -50 66 -115 158 -145 204 -29 45 -80 131 -112 190 -32 60
-79 153 -104 208 -25 55 -62 144 -82 199 -21 54 -53 155 -72 225 -19 69 -46
189 -59 266 -13 77 -29 205 -36 285 -7 88 -9 214 -6 320 4 96 14 229 22 295 9
66 27 171 41 233 13 63 35 153 49 200 14 48 44 137 66 197 23 61 74 178 114
260 40 83 109 207 152 276 44 70 112 169 151 222 40 52 109 137 155 188 46 52
132 140 192 197 60 57 159 141 220 186 60 46 149 109 197 140 48 30 138 83
200 117 62 33 174 87 248 118 74 32 178 72 230 89 52 17 129 40 170 51 41 11
122 29 180 40 58 11 143 25 190 32 47 6 148 14 225 18 77 4 176 6 220 5 44 -2
125 -6 180 -9z"/>
</g>
</svg>
